<?xml version="1.0" encoding="UTF-8" standalone="no"?>
<!-- Created with Inkscape (http://www.inkscape.org/) -->

<svg
   width="13"
   height="15.680007"
   viewBox="0 0 13 15.680007"
   version="1.1"
   id="svg1"
   inkscape:version="1.3.2 (091e20e, 2023-11-25, custom)"
   sodipodi:docname="icon.svg"
   inkscape:export-filename="icon-dashboard.svg"
   inkscape:export-xdpi="96"
   inkscape:export-ydpi="96"
   xmlns:inkscape="http://www.inkscape.org/namespaces/inkscape"
   xmlns:sodipodi="http://sodipodi.sourceforge.net/DTD/sodipodi-0.dtd"
   xmlns="http://www.w3.org/2000/svg"
   xmlns:svg="http://www.w3.org/2000/svg">
  <sodipodi:namedview
     id="namedview1"
     pagecolor="#ffffff"
     bordercolor="#000000"
     borderopacity="0.25"
     inkscape:showpageshadow="false"
     inkscape:pageopacity="0.0"
     inkscape:pagecheckerboard="0"
     inkscape:deskcolor="#ffffff"
     inkscape:document-units="px"
     showborder="true"
     inkscape:zoom="1.4142136"
     inkscape:cx="112.07642"
     inkscape:cy="-64.346717"
     inkscape:window-width="1366"
     inkscape:window-height="715"
     inkscape:window-x="1358"
     inkscape:window-y="-8"
     inkscape:window-maximized="1"
     inkscape:current-layer="layer1">
    <inkscape:page
       x="0"
       y="0"
       width="13"
       height="15.680007"
       id="page1"
       margin="0"
       bleed="0" />
  </sodipodi:namedview>
  <defs
     id="defs1" />
  <g
     inkscape:label="Layer 1"
     inkscape:groupmode="layer"
     id="layer1"
     transform="translate(-183.5)">
    <path
       id="path11"
       style="fill:#4d4d4d;fill-opacity:1;stroke-width:1;stroke-linejoin:round;stroke-dashoffset:26"
       d="m 190,0 c -3.58985,0 -6.5,2.9101527 -6.5,6.5 0.004,1.3078515 0.77227,3.123132 1.14258,3.662109 0.3703,0.538977 4.85032,5.285309 4.85032,5.285309 0.28006,0.305183 0.7403,0.310987 1.02679,0.01182 1.04326,-1.089428 3.39939,-3.570026 4.65023,-5.047132 C 196.027,9.2874597 196.49396,7.9139948 196.5,6.5 196.5,2.9101527 193.58985,0 190,0 Z m 0,2.0585938 c 2.34721,0 4.25,1.9027898 4.25,4.25 0,2.3472103 -1.90279,4.2500002 -4.25,4.2500002 -2.34721,0 -4.25,-1.9027899 -4.25,-4.2500002 0,-2.3472102 1.90279,-4.25 4.25,-4.25 z"
       sodipodi:nodetypes="sczcsccssssss"
       inkscape:export-filename="icon-filter-location.svg"
       inkscape:export-xdpi="96"
       inkscape:export-ydpi="96" />
  </g>
</svg>
