<?xml version="1.0" encoding="UTF-8" standalone="no"?>
<!-- Created with Inkscape (http://www.inkscape.org/) -->

<svg
   width="15.97301"
   height="15.97301"
   viewBox="0 0 15.97301 15.97301"
   version="1.1"
   id="svg1"
   inkscape:version="1.3.2 (091e20e, 2023-11-25, custom)"
   sodipodi:docname="icon.svg"
   inkscape:export-filename="icon-dashboard.svg"
   inkscape:export-xdpi="96"
   inkscape:export-ydpi="96"
   xmlns:inkscape="http://www.inkscape.org/namespaces/inkscape"
   xmlns:sodipodi="http://sodipodi.sourceforge.net/DTD/sodipodi-0.dtd"
   xmlns="http://www.w3.org/2000/svg"
   xmlns:svg="http://www.w3.org/2000/svg">
  <sodipodi:namedview
     id="namedview1"
     pagecolor="#ffffff"
     bordercolor="#000000"
     borderopacity="0.25"
     inkscape:showpageshadow="false"
     inkscape:pageopacity="0.0"
     inkscape:pagecheckerboard="0"
     inkscape:deskcolor="#ffffff"
     inkscape:document-units="px"
     showborder="true"
     inkscape:zoom="1.4142136"
     inkscape:cx="112.07642"
     inkscape:cy="-64.346717"
     inkscape:window-width="1366"
     inkscape:window-height="715"
     inkscape:window-x="1358"
     inkscape:window-y="-8"
     inkscape:window-maximized="1"
     inkscape:current-layer="layer1">
    <inkscape:page
       x="-9.2544263e-07"
       y="1.0674111e-10"
       width="15.97301"
       height="15.97301"
       id="page1"
       margin="0"
       bleed="0" />
  </sodipodi:namedview>
  <defs
     id="defs1" />
  <g
     inkscape:label="Layer 1"
     inkscape:groupmode="layer"
     id="layer1"
     transform="translate(0,-0.0269897)">
    <path
       id="path30"
       style="fill:#ffffff;fill-opacity:1;stroke:none;stroke-width:1;stroke-linejoin:round;stroke-dashoffset:26;stroke-opacity:1"
       d="M 6.5,0.75 V 9.5 h 8.75 c 0.414214,0 0.753099,-0.3363909 0.720888,-0.7492452 C 15.608155,4.1014908 11.898502,0.39184036 7.2492368,0.02911132 6.8363871,-0.00309862 6.5,0.33578644 6.5,0.75 Z M 4.2527472,6.0554627 C 1.8457723,6.4161578 0,8.4925278 0,11 0,13.761423 2.2385756,16 5,16 7.5074083,16 9.5837362,14.154321 9.9445096,11.747437 10.00587,11.338076 9.6642136,11 9.25,11 H 5 V 6.75 C 5,6.3357864 4.662009,5.9941332 4.2527472,6.0554627 Z" />
  </g>
</svg>
