<?xml version="1.0" encoding="UTF-8" standalone="no"?>
<!-- Created with Inkscape (http://www.inkscape.org/) -->

<svg
   width="15"
   height="15.5"
   viewBox="0 0 15 15.5"
   version="1.1"
   id="svg1"
   inkscape:version="1.3.2 (091e20e, 2023-11-25, custom)"
   sodipodi:docname="icon.svg"
   inkscape:export-filename="icon-dashboard.svg"
   inkscape:export-xdpi="96"
   inkscape:export-ydpi="96"
   xmlns:inkscape="http://www.inkscape.org/namespaces/inkscape"
   xmlns:sodipodi="http://sodipodi.sourceforge.net/DTD/sodipodi-0.dtd"
   xmlns="http://www.w3.org/2000/svg"
   xmlns:svg="http://www.w3.org/2000/svg">
  <sodipodi:namedview
     id="namedview1"
     pagecolor="#ffffff"
     bordercolor="#000000"
     borderopacity="0.25"
     inkscape:showpageshadow="false"
     inkscape:pageopacity="0.0"
     inkscape:pagecheckerboard="0"
     inkscape:deskcolor="#ffffff"
     inkscape:document-units="px"
     showborder="true"
     inkscape:zoom="1.4142136"
     inkscape:cx="112.07642"
     inkscape:cy="-64.346717"
     inkscape:window-width="1366"
     inkscape:window-height="715"
     inkscape:window-x="1358"
     inkscape:window-y="-8"
     inkscape:window-maximized="1"
     inkscape:current-layer="layer1">
    <inkscape:page
       x="0"
       y="0"
       width="15"
       height="15.5"
       id="page1"
       margin="0"
       bleed="0" />
  </sodipodi:namedview>
  <defs
     id="defs1" />
  <g
     inkscape:label="Layer 1"
     inkscape:groupmode="layer"
     id="layer1"
     transform="translate(-234.5)">
    <path
       id="path18"
       style="fill:#4d4d4d;fill-opacity:1;stroke-width:1;stroke-linejoin:round;stroke-dashoffset:26"
       d="m 237.42773,0 c -0.41421,0 -0.75,0.33578767 -0.75,0.75 V 2.1347656 H 235.5 c -0.55228,0 -1,0.4477176 -1,1 v 2.4023438 h 15 V 3.1347656 c 0,-0.5522824 -0.44772,-1 -1,-1 h -1.17773 V 0.75 c 0,-0.41421233 -0.33579,-0.75 -0.75,-0.75 h -1.5 c -0.41421,0 -0.75,0.33578767 -0.75,0.75 v 1.3847656 h -4.64454 V 0.75 c 0,-0.41421233 -0.33579,-0.75 -0.75,-0.75 z M 234.5,7.0019531 V 8.955078 h 2.14286 V 7.0019531 Z m 4.28571,0 V 8.955078 h 2.14286 V 7.0019531 Z m 4.28572,0 V 8.955078 h 2.14286 V 7.0019531 Z m 4.28571,0 V 8.955078 H 249.5 V 7.0019531 Z M 234.5,10.544922 V 14.5 c 0,0.552281 0.44772,1 1,1 h 13 c 0.55228,0 1,-0.447719 1,-1 v -3.955078 z"
       sodipodi:nodetypes="sscssccsscssssccssscccccccccccccccccccccsssscc"
       inkscape:export-filename="icon-filter-date_range.svg"
       inkscape:export-xdpi="96"
       inkscape:export-ydpi="96" />
  </g>
</svg>
