<?xml version="1.0" encoding="UTF-8" standalone="no"?>
<!-- Created with Inkscape (http://www.inkscape.org/) -->

<svg
   width="16"
   height="16"
   viewBox="0 0 16 16"
   version="1.1"
   id="svg1"
   inkscape:version="1.3.2 (091e20e, 2023-11-25, custom)"
   sodipodi:docname="icon.svg"
   inkscape:export-filename="icon-dashboard.svg"
   inkscape:export-xdpi="96"
   inkscape:export-ydpi="96"
   xmlns:inkscape="http://www.inkscape.org/namespaces/inkscape"
   xmlns:sodipodi="http://sodipodi.sourceforge.net/DTD/sodipodi-0.dtd"
   xmlns="http://www.w3.org/2000/svg"
   xmlns:svg="http://www.w3.org/2000/svg">
  <sodipodi:namedview
     id="namedview1"
     pagecolor="#ffffff"
     bordercolor="#000000"
     borderopacity="0.25"
     inkscape:showpageshadow="false"
     inkscape:pageopacity="0.0"
     inkscape:pagecheckerboard="0"
     inkscape:deskcolor="#ffffff"
     inkscape:document-units="px"
     showborder="true"
     inkscape:zoom="1.4142136"
     inkscape:cx="112.07642"
     inkscape:cy="-64.346717"
     inkscape:window-width="1366"
     inkscape:window-height="715"
     inkscape:window-x="1358"
     inkscape:window-y="-8"
     inkscape:window-maximized="1"
     inkscape:current-layer="layer1">
    <inkscape:page
       x="0"
       y="0"
       width="16"
       height="16"
       id="page1"
       margin="0"
       bleed="0" />
  </sodipodi:namedview>
  <defs
     id="defs1" />
  <g
     inkscape:label="Layer 1"
     inkscape:groupmode="layer"
     id="layer1"
     transform="translate(-104)">
    <path
       id="path2"
       style="fill:#ffffff;stroke-width:1;stroke-linejoin:round;stroke-dashoffset:26"
       d="m 112,0 c -4.41828,0 -8,3.581722 -8,8 0,4.418278 3.58172,8 8,8 4.41828,0 8,-3.581722 8,-8 0,-4.418278 -3.58172,-8 -8,-8 z m 0,1.75 c 3.45178,0 6.25,2.7982203 6.25,6.25 -0.006,2.772713 -1.83819,5.209973 -4.5,5.986328 V 10.310547 A 0.75,0.75 0 0 0 113,9.5605469 h -2 a 0.75,0.75 0 0 0 -0.75,0.7500001 v 3.675781 C 107.58819,13.209973 105.75607,10.772713 105.75,8 c 0,-3.4517797 2.79822,-6.25 6.25,-6.25 z m 0,2.5 c -1.03553,0 -1.875,0.8394661 -1.875,1.875 0,1.0355339 0.83947,1.875 1.875,1.875 1.03553,0 1.875,-0.8394661 1.875,-1.875 0,-1.0355339 -0.83947,-1.875 -1.875,-1.875 z"
       inkscape:export-filename="icon-about.svg"
       inkscape:export-xdpi="96"
       inkscape:export-ydpi="96" />
  </g>
</svg>
