<?xml version="1.0" encoding="UTF-8" standalone="no"?>
<!-- Created with Inkscape (http://www.inkscape.org/) -->

<svg
   width="14.740875"
   height="16"
   viewBox="0 0 14.740875 16"
   version="1.1"
   id="svg1"
   inkscape:version="1.3.2 (091e20e, 2023-11-25, custom)"
   sodipodi:docname="icon.svg"
   inkscape:export-filename="icon-dashboard.svg"
   inkscape:export-xdpi="96"
   inkscape:export-ydpi="96"
   xmlns:inkscape="http://www.inkscape.org/namespaces/inkscape"
   xmlns:sodipodi="http://sodipodi.sourceforge.net/DTD/sodipodi-0.dtd"
   xmlns="http://www.w3.org/2000/svg"
   xmlns:svg="http://www.w3.org/2000/svg">
  <sodipodi:namedview
     id="namedview1"
     pagecolor="#ffffff"
     bordercolor="#000000"
     borderopacity="0.25"
     inkscape:showpageshadow="false"
     inkscape:pageopacity="0.0"
     inkscape:pagecheckerboard="0"
     inkscape:deskcolor="#ffffff"
     inkscape:document-units="px"
     showborder="true"
     inkscape:zoom="1.4142136"
     inkscape:cx="112.07642"
     inkscape:cy="-64.346717"
     inkscape:window-width="1366"
     inkscape:window-height="715"
     inkscape:window-x="1358"
     inkscape:window-y="-8"
     inkscape:window-maximized="1"
     inkscape:current-layer="layer1">
    <inkscape:page
       x="-4.2018905e-07"
       y="0"
       width="14.740875"
       height="16"
       id="page1"
       margin="0"
       bleed="0" />
  </sodipodi:namedview>
  <defs
     id="defs1" />
  <g
     inkscape:label="Layer 1"
     inkscape:groupmode="layer"
     id="layer1"
     transform="translate(-208.62956)">
    <path
       id="path12"
       style="fill:#4d4d4d;fill-opacity:1;stroke-width:1;stroke-linejoin:round;stroke-dashoffset:26"
       inkscape:transform-center-x="-0.0056297414"
       inkscape:transform-center-y="-0.0095288058"
       d="m 215.29856,0.19300542 -5.07555,2.89711228 a 0.49038688,0.49038688 0 0 0 -0.005,0.8492248 l 5.77935,3.3791804 5.7871,-3.3227029 a 0.49240207,0.49240207 0 0 0 0.003,-0.8518404 l -5.02078,-2.9425618 a 1.467502,1.467502 0 0 0 -1.4695,-0.008409 z m -6.669,5.64350358 v 5.906485 a 1.4732453,1.4732453 0 0 0 0.73434,1.274546 l 5.03007,2.916138 a 0.48988563,0.48988563 0 0 0 0.73559,-0.423094 l 0.0102,-6.7174967 -5.77707,-3.3770336 a 0.48702227,0.48702227 0 0 0 -0.73281,0.4204553 z m 14.00508,-0.3572284 -5.7871,3.322703 -0.0102,6.7086004 a 0.48869429,0.48869429 0 0 0 0.73345,0.423707 l 5.06496,-2.930709 a 1.4718236,1.4718236 0 0 0 0.73469,-1.273933 V 5.9054555 a 0.49142525,0.49142525 0 0 0 -0.73612,-0.4261749 z"
       inkscape:export-filename="icon-filter-product.svg"
       inkscape:export-xdpi="96"
       inkscape:export-ydpi="96" />
    <g
       id="path14"
       transform="translate(26)">
      <path
         style="color:#000000;fill:#9799ab;stroke-linejoin:round;stroke-dashoffset:26;-inkscape-stroke:none"
         d="m 189.98356,15.5 0.0115,-7.5059988"
         id="path17" />
    </g>
  </g>
</svg>
