<?xml version="1.0" encoding="UTF-8" standalone="no"?>
<!-- Created with Inkscape (http://www.inkscape.org/) -->

<svg
   width="14.651169"
   height="15.189341"
   viewBox="0 0 14.651169 15.189341"
   version="1.1"
   id="svg1"
   inkscape:version="1.3.2 (091e20e, 2023-11-25, custom)"
   sodipodi:docname="icon.svg"
   inkscape:export-filename="icon-dashboard.svg"
   inkscape:export-xdpi="96"
   inkscape:export-ydpi="96"
   xmlns:inkscape="http://www.inkscape.org/namespaces/inkscape"
   xmlns:sodipodi="http://sodipodi.sourceforge.net/DTD/sodipodi-0.dtd"
   xmlns="http://www.w3.org/2000/svg"
   xmlns:svg="http://www.w3.org/2000/svg">
  <sodipodi:namedview
     id="namedview1"
     pagecolor="#ffffff"
     bordercolor="#000000"
     borderopacity="0.25"
     inkscape:showpageshadow="false"
     inkscape:pageopacity="0.0"
     inkscape:pagecheckerboard="0"
     inkscape:deskcolor="#ffffff"
     inkscape:document-units="px"
     showborder="true"
     inkscape:zoom="1.4142136"
     inkscape:cx="112.07642"
     inkscape:cy="-64.346717"
     inkscape:window-width="1366"
     inkscape:window-height="715"
     inkscape:window-x="1358"
     inkscape:window-y="-8"
     inkscape:window-maximized="1"
     inkscape:current-layer="layer1">
    <inkscape:page
       x="9.4102455e-07"
       y="5.0903455e-22"
       width="14.651169"
       height="15.189341"
       id="page1"
       margin="0"
       bleed="0" />
  </sodipodi:namedview>
  <defs
     id="defs1" />
  <g
     inkscape:label="Layer 1"
     inkscape:groupmode="layer"
     id="layer1"
     transform="translate(-156)">
    <path
       id="path8"
       style="fill:#4d4d4d;fill-opacity:1;stroke-width:1;stroke-linejoin:round;stroke-dashoffset:26"
       d="M 162.75,0 C 159.02208,-2.7614213e-7 156,3.0220815 156,6.75 c 0,3.727918 3.02208,6.75 6.75,6.75 1.13726,-8.88e-4 2.25586,-0.289104 3.25195,-0.837891 l 2.30664,2.306641 a 0.75000093,0.75000093 0 0 0 1.0625,0 l 1.0586,-1.058594 a 0.75026899,0.75026899 0 0 0 0.002,-1.0625 L 168.2481,10.664062 C 169.06202,9.5212053 169.49963,8.1530949 169.5,6.75 169.5,3.0220815 166.47792,-2.7614214e-7 162.75,0 Z m 0,2.25 a 4.5,4.5 0 0 1 0.2207,0.00586 c 0.004,1.861e-4 0.008,-1.959e-4 0.0117,0 a 4.5,4.5 0 0 1 0.20899,0.015625 c 0.006,6.302e-4 0.0131,0.0013 0.0195,0.00195 a 4.5,4.5 0 0 1 0.19922,0.025391 c 0.008,0.00124 0.0169,0.00262 0.0254,0.00391 a 4.5,4.5 0 0 1 0.1914,0.033203 c 0.01,0.00193 0.0195,0.00386 0.0293,0.00586 a 4.5,4.5 0 0 1 0.1875,0.042969 c 0.0103,0.00258 0.0209,0.00516 0.0312,0.00781 a 4.5,4.5 0 0 1 0.18164,0.050781 c 0.0105,0.00317 0.0208,0.00653 0.0312,0.00977 a 4.5,4.5 0 0 1 0.17773,0.060547 c 0.0623,0.022307 0.12453,0.045368 0.18555,0.070312 a 4.5,4.5 0 0 1 0.0215,0.00781 c 0.01,0.00401 0.0197,0.00764 0.0293,0.011719 a 4.5,4.5 0 0 1 0.17188,0.078125 c 0.0668,0.031664 0.13228,0.064797 0.19726,0.099609 0.0245,0.013128 0.048,0.027449 0.0723,0.041016 A 4.5,4.5 0 0 1 165.25,3.0078125 c 0.005,0.00341 0.0105,0.00633 0.0156,0.00977 a 4.5,4.5 0 0 1 0.0313,0.023437 4.5,4.5 0 0 1 0.30859,0.2304688 c 0.002,0.00206 0.005,0.0038 0.008,0.00586 a 4.5,4.5 0 0 1 0.0215,0.019531 4.5,4.5 0 0 1 0.29687,0.2714844 4.5,4.5 0 0 1 0.27148,0.296875 c 0.006,0.00744 0.0134,0.014004 0.0195,0.021484 a 4.5,4.5 0 0 1 0.006,0.00781 4.5,4.5 0 0 1 0.23046,0.3085938 c 0.007,0.010707 0.0162,0.020476 0.0234,0.03125 a 4.5,4.5 0 0 1 0.01,0.015625 4.5,4.5 0 0 1 0.18554,0.3066406 c 0.0136,0.024233 0.0279,0.047759 0.041,0.072266 0.0348,0.064986 0.0679,0.1304205 0.0996,0.1972657 0.0269,0.056858 0.0535,0.1137377 0.0781,0.171875 a 4.5,4.5 0 0 1 0.0117,0.029297 c 0.003,0.00701 0.005,0.014456 0.008,0.021484 0.0249,0.061026 0.048,0.1232152 0.0703,0.1855469 0.0211,0.05889 0.0419,0.1177392 0.0605,0.1777344 a 4.5,4.5 0 0 1 0.01,0.03125 c 0.0183,0.060222 0.035,0.12038 0.0508,0.1816406 a 4.5,4.5 0 0 1 0.008,0.03125 c 0.0154,0.061751 0.0301,0.1247685 0.043,0.1875 a 4.5,4.5 0 0 1 0.006,0.029297 c 0.0126,0.063624 0.0233,0.1268488 0.0332,0.1914062 a 4.5,4.5 0 0 1 0.004,0.025391 c 0.01,0.066159 0.0186,0.1321565 0.0254,0.1992187 a 4.5,4.5 0 0 1 0.002,0.019531 c 0.007,0.069249 0.0121,0.1388526 0.0156,0.2089843 A 4.5,4.5 0 0 1 167.25,6.75 c -2.5e-4,0.2012236 -0.0141,0.4015577 -0.041,0.5996094 a 4.5,4.5 0 0 1 -0.002,0.00977 4.5,4.5 0 0 1 -0.0176,0.099609 c -0.028,0.1734104 -0.0633,0.3449538 -0.11133,0.5136718 a 4.5,4.5 0 0 1 -0.0371,0.1191407 c -0.0486,0.1544644 -0.10479,0.3063985 -0.16993,0.4550781 a 4.5,4.5 0 0 1 -0.0703,0.1503906 c -0.0556,0.1152736 -0.11411,0.229208 -0.17969,0.3398438 l -0.004,-0.00391 a 4.5,4.5 0 0 1 -2.31446,1.9296876 l 0.006,0.0059 c -0.0554,0.02055 -0.11191,0.03636 -0.16797,0.05469 a 4.5,4.5 0 0 1 -0.1875,0.05859 c -0.15794,0.04412 -0.31882,0.07886 -0.48046,0.105469 a 4.5,4.5 0 0 1 -0.17383,0.02344 c -0.18194,0.02268 -0.36483,0.03876 -0.54883,0.03906 -0.206,0 -0.40877,-0.01616 -0.60742,-0.04297 a 4.5,4.5 0 0 1 -0.0547,-0.0059 c -0.19936,-0.02939 -0.39403,-0.07232 -0.58398,-0.126953 a 4.5,4.5 0 0 1 -0.0391,-0.01172 c -0.2003,-0.0596 -0.39448,-0.133071 -0.58203,-0.21875 -0.001,-4.94e-4 -0.003,4.94e-4 -0.004,0 -0.1774,-0.08121 -0.34566,-0.176604 -0.50977,-0.279297 a 4.5,4.5 0 0 1 -0.0742,-0.04492 c -0.16256,-0.106136 -0.31776,-0.22393 -0.46484,-0.349609 a 4.5,4.5 0 0 1 -0.08,-0.07226 C 159.62767,9.9879679 159.51203,9.8723278 159.40234,9.75 a 4.5,4.5 0 0 1 -0.0723,-0.080078 C 159.2044,9.5228433 159.0866,9.3676404 158.98047,9.2050781 a 4.5,4.5 0 0 1 -0.0449,-0.074219 c -0.1027,-0.1641087 -0.19809,-0.3323667 -0.2793,-0.5097656 a 4.5,4.5 0 0 1 0,-0.00391 c -0.0857,-0.1875496 -0.15915,-0.381727 -0.21875,-0.5820313 a 4.5,4.5 0 0 1 -0.0117,-0.039062 c -0.0546,-0.1899543 -0.0976,-0.3846205 -0.12695,-0.5839844 a 4.5,4.5 0 0 1 -0.006,-0.054687 C 158.26616,7.1587673 158.25,6.9559998 158.25,6.75 c 0,-0.2059998 0.0162,-0.4087673 0.043,-0.6074219 a 4.5,4.5 0 0 1 0.006,-0.054687 c 0.0294,-0.1993639 0.0723,-0.3940301 0.12695,-0.5839844 a 4.5,4.5 0 0 1 0.0117,-0.039062 c 0.0596,-0.2003043 0.13307,-0.3944817 0.21875,-0.5820313 a 4.5,4.5 0 0 1 0,-0.00391 c 0.0812,-0.1773989 0.1766,-0.3456569 0.2793,-0.5097656 a 4.5,4.5 0 0 1 0.0449,-0.074219 c 0.10613,-0.1625623 0.22393,-0.3177652 0.34961,-0.4648438 A 4.5,4.5 0 0 1 159.40234,3.75 c 0.10969,-0.1223278 0.22533,-0.2379679 0.34766,-0.3476562 a 4.5,4.5 0 0 1 0.0801,-0.072266 c 0.14708,-0.125679 0.30228,-0.2434732 0.46484,-0.3496093 a 4.5,4.5 0 0 1 0.0742,-0.044922 c 0.16411,-0.1026925 0.33237,-0.1980847 0.50977,-0.2792969 0.001,-4.944e-4 0.003,4.936e-4 0.004,0 0.18755,-0.085679 0.38173,-0.1591472 0.58203,-0.21875 a 4.5,4.5 0 0 1 0.0391,-0.011719 c 0.18995,-0.054636 0.38462,-0.097567 0.58398,-0.1269531 a 4.5,4.5 0 0 1 0.0547,-0.00586 C 162.34123,2.2661642 162.544,2.25 162.75,2.25 Z"
       inkscape:export-filename="icon-navbar-search.svg"
       inkscape:export-xdpi="96"
       inkscape:export-ydpi="96" />
  </g>
</svg>
