<?xml version="1.0" encoding="UTF-8" standalone="no"?>
<!-- Created with Inkscape (http://www.inkscape.org/) -->

<svg
   width="15.374779"
   height="15.374773"
   viewBox="0 0 15.374779 15.374773"
   version="1.1"
   id="svg1"
   inkscape:version="1.3.2 (091e20e, 2023-11-25, custom)"
   sodipodi:docname="icon.svg"
   inkscape:export-filename="icon-dashboard.svg"
   inkscape:export-xdpi="96"
   inkscape:export-ydpi="96"
   xmlns:inkscape="http://www.inkscape.org/namespaces/inkscape"
   xmlns:sodipodi="http://sodipodi.sourceforge.net/DTD/sodipodi-0.dtd"
   xmlns="http://www.w3.org/2000/svg"
   xmlns:svg="http://www.w3.org/2000/svg">
  <sodipodi:namedview
     id="namedview1"
     pagecolor="#ffffff"
     bordercolor="#000000"
     borderopacity="0.25"
     inkscape:showpageshadow="false"
     inkscape:pageopacity="0.0"
     inkscape:pagecheckerboard="0"
     inkscape:deskcolor="#ffffff"
     inkscape:document-units="px"
     showborder="true"
     inkscape:zoom="1.4142136"
     inkscape:cx="112.07642"
     inkscape:cy="-64.346717"
     inkscape:window-width="1366"
     inkscape:window-height="715"
     inkscape:window-x="1358"
     inkscape:window-y="-8"
     inkscape:window-maximized="1"
     inkscape:current-layer="layer1">
    <inkscape:page
       x="2.5562608e-06"
       y="5.1874643e-10"
       width="15.374779"
       height="15.374773"
       id="page1"
       margin="0"
       bleed="0" />
  </sodipodi:namedview>
  <defs
     id="defs1" />
  <g
     inkscape:label="Layer 1"
     inkscape:groupmode="layer"
     id="layer1"
     transform="translate(-78.312607,-0.31261331)">
    <path
       id="path29"
       style="color:#000000;fill:#ffffff;stroke-width:3;stroke-linejoin:round;stroke-dasharray:none;stroke-dashoffset:26"
       d="M 79.613878,0.53591416 78.535916,1.6138759 a 0.76239687,0.76239687 0 0 0 0,1.0781921 l 5.307932,5.3079322 -5.307932,5.3079318 a 0.7623969,0.7623969 0 0 0 0,1.078192 l 0.538981,0.538981 0.538981,0.538981 a 0.7623969,0.7623969 0 0 0 1.078192,0 l 5.307932,-5.307932 5.307933,5.307932 a 0.7623969,0.7623969 0 0 0 1.078191,0 l 1.077963,-1.077962 a 0.7623969,0.7623969 0 0 0 0,-1.078192 L 88.156156,8.0000002 93.464089,2.692068 a 0.76239687,0.76239687 0 0 0 0,-1.0781921 L 92.925107,1.074895 92.386126,0.53591416 a 0.76239694,0.76239694 0 0 0 -1.078191,3e-8 L 86.000002,5.8438464 80.69207,0.53591419 a 0.76239693,0.76239693 0 0 0 -1.078192,-3e-8 z"
       inkscape:export-filename="icon-sidebar-mobile-close.svg"
       inkscape:export-xdpi="96"
       inkscape:export-ydpi="96" />
  </g>
</svg>
